<?xml version="1.0" encoding="UTF-8" standalone="no"?>
<svg
   xmlns:dc="http://purl.org/dc/elements/1.1/"
   xmlns:cc="http://creativecommons.org/ns#"
   xmlns:rdf="http://www.w3.org/1999/02/22-rdf-syntax-ns#"
   xmlns:svg="http://www.w3.org/2000/svg"
   xmlns="http://www.w3.org/2000/svg"
   viewBox="0 0 258.66666 258.66666"
   height="258.66666"
   width="258.66666"
   xml:space="preserve"
   id="svg2"
   version="1.1"><metadata
     id="metadata8"><rdf:RDF><cc:Work
         rdf:about=""><dc:format>image/svg+xml</dc:format><dc:type
           rdf:resource="http://purl.org/dc/dcmitype/StillImage" /></cc:Work></rdf:RDF></metadata><defs
     id="defs6" /><g
     transform="matrix(1.3333333,0,0,-1.3333333,0,258.66667)"
     id="g10"><g
       transform="scale(0.1)"
       id="g12"><path
         id="path14"
         style="fill:#ffffff;fill-opacity:1;fill-rule:evenodd;stroke:none"
         d="M 2.59766,1933.23 H 1930.16 V 5.66797 H 2.59766 V 1933.23" /><path
         id="path16"
         style="fill:#231f20;fill-opacity:1;fill-rule:evenodd;stroke:none"
         d="m 581.02,726.355 c -54.735,0 -107.098,30.672 -140.993,72.532 -38.636,47.613 -57.449,109.133 -57.449,169.968 0,58.465 17.289,117.265 53.043,163.865 35.25,45.76 88.289,78.47 147.262,78.47 54.23,0 106.254,-31.01 139.64,-72.37 38.469,-47.61 57.618,-109.3 57.618,-170.132 0,-58.297 -17.457,-117.102 -53.043,-163.704 -34.91,-45.414 -87.614,-78.629 -146.078,-78.629" /><path
         id="path18"
         style="fill:#231f20;fill-opacity:1;fill-rule:evenodd;stroke:none"
         d="M 30.9453,1201.19 H 195.832 v -4.74 H 155.328 L 278.359,859.551 382.238,1196.45 h -40.836 v 4.74 h 88.969 v -4.74 h -39.32 L 244.637,730.762 74.3281,1196.45 H 30.9453 v 4.74" /><path
         id="path20"
         style="fill:#231f20;fill-opacity:1;fill-rule:evenodd;stroke:none"
         d="m 1141.09,1209.32 v -161.83 h -3.72 c -6.95,31.85 -16.78,62.87 -33.9,91 -20.33,32.87 -52.7,69.81 -94.9,69.81 -96.929,0 -105.738,-173.69 -105.738,-239.952 0,-59.313 4.742,-120.489 26.266,-176.075 15.082,-38.976 36.941,-58.121 77.442,-58.121 32.2,0 66.43,16.266 83.55,44.227 4.4,7.289 4.74,15.422 4.74,23.726 v 1.184 123.879 h -42.37 v 4.914 h 155.06 v -4.914 h -36.26 V 740.082 h -3.22 c -9.15,15.254 -23.56,25.25 -42.03,25.25 -13.38,0 -26.44,-4.746 -38.13,-11.187 l -10.5,-5.758 c -23.73,-10.508 -46.44,-18.133 -72.7,-18.133 -120.321,0 -184.379,128.281 -184.379,234.703 0,77.783 29.656,160.993 92.699,209.633 28.297,21.86 62.527,37.95 98.96,37.95 14.24,0 28.3,-4.4 41.52,-9.66 l 9.66,-3.72 c 11.01,-4.07 23.05,-7.97 34.91,-7.97 14.74,0 27.96,9.66 39.32,18.13 h 3.72" /><path
         id="path22"
         style="fill:#231f20;fill-opacity:1;fill-rule:evenodd;stroke:none"
         d="m 1187.36,1201.19 h 165.39 v -4.74 h -43.89 V 837.352 c 0,-56.258 57.96,-90.493 108.63,-90.493 54.56,0 100.49,37.961 100.49,93.711 v 355.88 h -51.85 v 4.74 H 1893 v -166.58 h -3.22 c -4.91,44.06 -13.39,89.3 -43.72,123.71 -30.67,34.73 -72.36,38.13 -115.24,38.13 h -46.26 V 982.242 c 9.49,-1.015 19.15,-1.695 28.81,-1.695 58.12,0 73.21,39.993 75.75,89.473 h 4.24 V 882.09 h -4.24 c -7.29,44.906 -27.11,93.035 -79.82,93.035 -8.3,0 -16.44,-0.508 -24.74,-1.187 V 744.824 h 69.31 c 35.93,0 71.68,15.594 97.1,40.672 21.69,21.356 36.78,49.145 42.03,79.141 2.88,16.777 4.23,33.89 5.08,50.836 h 3.73 V 740.082 h -333.67 v 4.742 h 38.81 v 451.626 h -82.02 V 839.215 c 0,-73.883 -70.16,-106.59 -135.91,-106.59 -74.4,0 -156.42,36.098 -156.42,121.164 v 342.661 h -45.24 v 4.74" /><path
         id="path24"
         style="fill:#ffffff;fill-opacity:1;fill-rule:evenodd;stroke:none"
         d="m 696.422,968.855 c 0,67.275 -24.063,235.385 -115.063,235.385 -91.339,0 -115.062,-167.94 -115.062,-235.385 0,-67.445 23.891,-235.55 115.062,-235.55 91,0 115.063,168.273 115.063,235.55" /></g></g></svg>