<?xml version="1.0" standalone="no"?>
<!DOCTYPE svg PUBLIC "-//W3C//DTD SVG 20010904//EN"
 "http://www.w3.org/TR/2001/REC-SVG-20010904/DTD/svg10.dtd">
<svg version="1.0" xmlns="http://www.w3.org/2000/svg"
 width="320.000000pt" height="85.000000pt" viewBox="0 0 320.000000 85.000000"
 preserveAspectRatio="xMidYMid meet">
<metadata>
Created by potrace 1.15, written by Peter Selinger 2001-2017
</metadata>
<g transform="translate(0.000000,85.000000) scale(0.100000,-0.100000)"
fill="#000000" stroke="none">
<path d="M859 817 c-170 -64 -278 -253 -252 -440 22 -151 89 -262 193 -321 49
-27 64 -31 135 -31 68 0 89 4 137 28 102 50 175 160 205 306 13 61 14 89 5
139 -21 124 -101 241 -203 296 -62 34 -162 45 -220 23z m192 -54 c61 -66 74
-125 74 -338 0 -203 -13 -270 -65 -329 -39 -44 -79 -60 -139 -54 -121 12 -162
108 -162 383 -1 160 12 234 53 307 34 60 71 80 142 75 54 -3 62 -7 97 -44z"/>
<path d="M1564 811 c-168 -76 -261 -303 -209 -506 36 -137 118 -240 215 -269
77 -23 118 -20 210 14 99 36 104 37 136 5 14 -14 27 -25 29 -25 3 0 5 72 5
160 l0 160 30 0 c17 0 30 5 30 10 0 6 -52 10 -135 10 -83 0 -135 -4 -135 -10
0 -5 16 -10 35 -10 l35 0 0 -102 c0 -121 -16 -163 -70 -190 -48 -25 -115 -23
-151 3 -68 48 -94 152 -93 374 0 172 15 257 56 323 76 124 255 36 315 -155 9
-29 20 -53 25 -53 4 0 8 63 8 140 0 77 -1 140 -3 140 -1 0 -19 -9 -40 -19 -36
-19 -38 -19 -98 0 -77 24 -142 24 -195 0z"/>
<path d="M20 800 c0 -5 18 -10 39 -10 l39 0 45 -122 c24 -68 86 -239 137 -381
51 -141 96 -257 99 -257 7 0 16 29 166 493 l86 267 34 0 c19 0 35 5 35 10 0 6
-33 10 -80 10 -47 0 -80 -4 -80 -10 0 -5 14 -10 30 -10 17 0 30 -5 30 -11 0
-6 -37 -124 -81 -262 -69 -213 -83 -248 -91 -227 -76 203 -178 484 -178 491 0
5 14 9 30 9 17 0 30 5 30 10 0 6 -55 10 -145 10 -90 0 -145 -4 -145 -10z"/>
<path d="M1998 803 l42 -4 0 -310 c0 -343 1 -352 63 -406 46 -40 121 -63 209
-63 77 0 129 18 171 58 57 54 57 54 57 402 l0 320 65 0 65 0 0 -375 0 -375
-30 0 c-16 0 -30 -4 -30 -10 0 -6 102 -10 285 -10 l285 0 -1 158 c0 97 -4 149
-9 137 -5 -11 -9 -34 -9 -51 -1 -44 -47 -130 -89 -164 -46 -38 -118 -60 -194
-60 l-58 0 0 190 c0 207 -3 198 62 180 46 -13 84 -58 93 -110 14 -85 25 -34
25 120 0 100 -4 160 -10 160 -5 0 -10 -6 -10 -12 0 -74 -53 -128 -122 -128
l-38 0 0 170 0 169 33 6 c40 8 135 -8 175 -29 65 -34 104 -99 119 -203 12 -87
23 -39 23 102 l0 145 -372 -2 c-205 -1 -352 -3 -325 -5 l47 -4 0 -318 0 -318
-31 -42 c-36 -51 -96 -80 -162 -81 -65 0 -104 22 -128 73 -17 38 -19 69 -19
364 l0 322 43 4 c23 2 -28 4 -113 4 -85 0 -136 -2 -112 -4z"/>
</g>
</svg>
