<?xml version="1.0" standalone="no"?>
<!DOCTYPE svg PUBLIC "-//W3C//DTD SVG 20010904//EN"
 "http://www.w3.org/TR/2001/REC-SVG-20010904/DTD/svg10.dtd">
<svg version="1.0" xmlns="http://www.w3.org/2000/svg"
 width="5000.000000pt" height="1325.000000pt" viewBox="0 0 5000.000000 1325.000000"
 preserveAspectRatio="xMidYMid meet">
<metadata>
Created by potrace 1.15, written by Peter Selinger 2001-2017
</metadata>
<g transform="translate(0.000000,1325.000000) scale(0.100000,-0.100000)"
fill="#000000" stroke="none">
<path d="M29417 12850 c-146 -302 -619 -542 -1067 -543 -160 0 -230 16 -416
93 -802 333 -1556 520 -2098 520 -1108 -1 -2378 -747 -3350 -1969 -682 -856
-1161 -1877 -1370 -2921 -140 -696 -158 -1445 -55 -2275 164 -1324 624 -2541
1313 -3475 380 -515 834 -942 1336 -1255 161 -100 355 -205 510 -275 724 -327
1642 -451 2321 -315 106 21 338 85 449 124 240 83 371 135 925 371 597 253
959 351 1310 354 296 2 505 -68 704 -236 116 -96 231 -267 281 -413 17 -50 17
-50 63 -53 l47 -3 0 2460 0 2461 500 0 500 0 0 75 0 75 -2035 0 -2035 0 0 -75
0 -75 525 0 525 0 0 -1673 0 -1674 -34 -125 c-191 -697 -667 -1174 -1396
-1400 -304 -94 -721 -147 -1055 -135 -671 25 -1201 330 -1604 922 -537 789
-838 2028 -931 3830 -41 803 -41 2033 0 2830 81 1563 331 2764 739 3551 383
737 877 1115 1523 1165 142 10 390 -1 563 -25 653 -94 1221 -383 1739 -886
499 -485 913 -1146 1246 -1988 70 -178 189 -538 246 -747 53 -193 114 -466
114 -512 0 -21 5 -23 50 -23 l50 0 0 2160 0 2160 -47 0 -48 -1 -38 -79z"/>
<path d="M14545 12870 c-433 -24 -861 -120 -1285 -287 -906 -357 -1736 -1018
-2410 -1918 -780 -1043 -1254 -2281 -1330 -3475 -20 -324 -10 -684 31 -1095
148 -1495 702 -2916 1538 -3945 775 -955 1766 -1542 2891 -1714 275 -41 407
-51 735 -51 385 0 606 21 936 90 1223 253 2309 1042 3126 2270 668 1004 1109
2240 1244 3485 26 241 37 791 20 1017 -60 793 -268 1545 -635 2298 -164 335
-313 592 -504 870 -538 781 -1218 1425 -1947 1843 -232 133 -423 226 -665 322
-546 218 -1174 322 -1745 290z m515 -130 c746 -93 1305 -435 1741 -1065 505
-729 816 -1850 928 -3345 41 -541 46 -715 46 -1520 0 -769 -7 -1025 -40 -1565
-112 -1801 -434 -3026 -996 -3780 -445 -597 -1059 -911 -1843 -944 -414 -16
-824 32 -1136 136 -931 308 -1480 1118 -1770 2608 -174 893 -252 1972 -254
3480 -1 781 10 1083 60 1650 153 1769 609 3050 1326 3730 392 372 841 572
1398 625 113 10 421 5 540 -10z"/>
<path d="M30710 12530 l0 -70 600 0 600 0 0 -423 c0 -233 2 -553 5 -713 2
-159 7 -2015 10 -4124 4 -2270 10 -3900 16 -3995 33 -544 202 -1004 528 -1430
92 -120 311 -345 441 -452 357 -292 786 -522 1300 -693 647 -217 1379 -323
2110 -307 279 6 442 21 680 63 875 152 1596 590 2100 1275 200 272 388 644
495 980 l35 112 0 4854 0 4853 1075 0 1075 0 0 -5860 0 -5860 -500 0 -500 0 0
-75 0 -75 4430 0 4430 0 0 2315 0 2315 -64 0 -63 0 -7 -172 c-18 -465 -59
-797 -142 -1163 -336 -1473 -1227 -2485 -2594 -2948 -541 -183 -975 -229
-1960 -208 -261 6 -577 11 -702 11 l-228 0 0 2969 0 2968 133 19 c165 24 593
27 727 5 646 -103 1195 -449 1479 -933 171 -292 303 -720 376 -1223 9 -60 20
-140 26 -177 l11 -68 59 0 59 0 0 2425 0 2425 -53 0 -53 0 -12 -112 c-47 -421
-157 -858 -291 -1154 -169 -375 -361 -580 -708 -753 -365 -183 -812 -262
-1393 -247 -140 3 -279 9 -307 12 l-53 7 0 2772 0 2772 308 7 c880 18 1343 19
1550 2 676 -55 1350 -258 1829 -549 201 -122 438 -311 587 -467 553 -582 895
-1422 1055 -2590 23 -164 61 -532 61 -585 l0 -35 61 0 61 0 -8 1568 c-4 863
-8 1584 -9 1603 -1 19 -2 296 -3 617 l-2 582 -5645 0 -5645 0 0 -70 0 -70 690
0 690 0 0 -4838 0 -4838 -34 -100 c-147 -433 -363 -814 -642 -1134 -493 -565
-1133 -909 -1899 -1019 -430 -62 -938 -43 -1315 50 -830 205 -1286 731 -1558
1799 l-30 115 -6 1345 c-3 740 -8 2443 -11 3785 -3 1342 -8 2979 -11 3638 l-6
1197 606 0 606 0 0 70 0 70 -2225 0 -2225 0 0 -70z"/>
<path d="M360 12515 l0 -75 633 0 633 0 93 -257 c51 -142 149 -411 216 -598
68 -187 491 -1357 940 -2600 449 -1243 834 -2307 855 -2365 21 -58 523 -1446
1115 -3085 593 -1639 1087 -3006 1098 -3037 12 -32 23 -58 26 -58 4 0 624
1927 1380 4283 755 2355 1621 5055 1925 6000 l551 1717 532 0 533 0 0 75 0 75
-1175 0 -1175 0 0 -75 0 -75 548 -2 548 -3 -109 -345 c-423 -1347 -927 -2909
-1492 -4625 -347 -1056 -874 -2660 -1037 -3161 l-144 -441 -529 1436 c-290
790 -554 1506 -586 1591 -141 381 -2032 5517 -2036 5533 -5 16 26 17 546 17
l551 0 0 75 0 75 -2220 0 -2220 0 0 -75z"/>
</g>
</svg>
