<?xml version="1.0" encoding="UTF-8" standalone="no"?>
<svg
   xmlns:dc="http://purl.org/dc/elements/1.1/"
   xmlns:cc="http://creativecommons.org/ns#"
   xmlns:rdf="http://www.w3.org/1999/02/22-rdf-syntax-ns#"
   xmlns:svg="http://www.w3.org/2000/svg"
   xmlns="http://www.w3.org/2000/svg"
   viewBox="0 0 257.01334 257.01334"
   height="257.01334"
   width="257.01334"
   xml:space="preserve"
   id="svg2"
   version="1.1"><metadata
     id="metadata8"><rdf:RDF><cc:Work
         rdf:about=""><dc:format>image/svg+xml</dc:format><dc:type
           rdf:resource="http://purl.org/dc/dcmitype/StillImage" /></cc:Work></rdf:RDF></metadata><defs
     id="defs6" /><g
     transform="matrix(1.3333333,0,0,-1.3333333,0,257.01333)"
     id="g10"><g
       transform="scale(0.1)"
       id="g12"><path
         id="path14"
         style="fill:#ffffff;fill-opacity:1;fill-rule:evenodd;stroke:none"
         d="M 0,1927.56 H 1927.56 V 0 H 0 v 1927.56" /><path
         id="path16"
         style="fill:#231f20;fill-opacity:1;fill-rule:evenodd;stroke:none"
         d="m 1511.73,1276.16 c 18.28,102.4 -49.98,182.85 -129.22,241.37 -110.92,81.67 -236.48,130.43 -365.7,168.22 v 0 -1350.66 0 c 57.3,49.976 114.59,106.055 169.44,163.348 117.03,129.214 225.52,260.863 270.62,419.335 18.29,71.918 8.54,153.597 -52.42,202.357 52.42,41.44 99.96,92.65 107.28,156.03 v 0 z M 1288.65,809.281 c -40.23,-73.14 -95.08,-140.183 -159.7,-202.355 v 0 l -1.21,386.426 v 0 c 43.89,31.688 88.99,59.738 143.85,64.608 21.94,0 41.44,-7.32 56.07,-24.38 48.76,-76.795 -8.53,-157.252 -39.01,-224.299 v 0 z m 110.93,497.359 c -10.97,-60.96 -78.02,-96.3 -125.55,-121.91 -47.55,-24.37 -96.31,-43.88 -146.29,-62.16 v 0 394.96 0 c 76.8,-23.17 146.29,-62.17 212.11,-108.5 30.48,-25.6 71.92,-57.29 59.73,-102.39 v 0 0" /><path
         id="path18"
         style="fill:#231f20;fill-opacity:1;fill-rule:evenodd;stroke:none"
         d="M 916.855,344.84 V 1690.63 L 808.363,1634.55 V 912.898 c -4.875,-20.718 9.754,-52.418 -13.41,-62.168 -6.094,-1.218 -10.965,1.219 -13.406,6.094 -46.32,174.316 -65.824,358.386 -74.359,547.336 v 0 l -3.665,164.56 -103.609,-76.8 v -43.88 0 c 6.09,-174.32 18.285,-344.97 51.195,-508.325 v 0 l -41.441,-46.324 v 0 C 593.82,915.34 584.066,938.496 573.094,961.66 520.68,1100.63 501.176,1253 493.859,1410.25 v 0 l -90.207,-67.04 v 0 c 8.536,-238.93 53.637,-464.444 198.7,-643.636 28.035,31.692 56.078,64.606 84.113,95.082 14.633,-64.609 35.348,-126.781 59.726,-187.73 40.231,-93.863 85.336,-188.946 170.664,-262.086" /><path
         id="path20"
         style="fill:#231f20;fill-opacity:1;fill-rule:evenodd;stroke:none"
         d="m 1747,1513.87 -162.13,40.22 -29.26,109.71 -165.78,39.01 -34.13,119.47 -391.302,88.99 -383.992,-88.99 -34.129,-119.47 -165.785,-39.01 v 0 c -10.969,-37.78 -20.722,-74.35 -30.476,-110.92 v 0 l -162.125,-39.01 v 0 C 175.699,1168.89 270.785,865.359 442.66,594.738 568.219,400.914 757.168,196.121 964.398,94.9453 1104.58,161.992 1228.92,274.141 1341.07,399.695 1612.9,714.199 1761.63,1082.34 1747,1513.87 v 0 z M 1269.15,470.395 C 1180.16,370.438 1080.2,271.703 968.051,214.406 860.781,268.043 766.918,360.688 681.586,454.551 459.727,714.199 312.227,1004.32 287.848,1344.43 c -2.434,28.03 -3.657,54.85 -2.434,84.11 v 0 l 137.746,31.69 31.692,113.37 169.445,40.23 1.215,3.65 30.476,117.03 307.192,71.92 316.94,-71.92 30.47,-119.46 171.89,-41.45 29.25,-113.37 138.97,-31.69 v 0 c -3.66,-370.58 -151.16,-681.427 -381.55,-958.145 v 0 0" /><path
         id="path22"
         style="fill:#231f20;fill-opacity:1;fill-rule:evenodd;stroke:none"
         d="m 1320.35,108.355 c 18.28,1.219 30.47,10.969 30.47,31.692 0,23.16 -14.63,34.129 -42.67,34.129 v 0 h -43.88 V 57.1563 h 19.5 v 49.9807 h 18.29 l 30.48,-49.9807 h 20.72 l -32.91,51.1987 z m -36.58,14.622 v 35.359 h 23.17 v 0 c 10.97,0 24.37,-2.438 24.37,-17.07 0,-15.844 -12.18,-18.289 -26.81,-18.289 v 0 h -20.73 v 0" /><path
         id="path24"
         style="fill:#231f20;fill-opacity:1;fill-rule:evenodd;stroke:none"
         d="m 1305.71,211.969 c -54.85,0 -99.95,-45.106 -99.95,-99.957 0,-54.8557 45.1,-99.9573 99.95,-99.9573 54.86,0 99.97,45.1016 99.97,99.9573 0,54.851 -45.11,99.957 -99.97,99.957 v 0 z m 0,-190.1682 c -49.97,0 -90.2,40.2265 -90.2,90.2112 0,49.98 40.23,90.211 90.2,90.211 49.99,0 90.21,-40.231 90.21,-90.211 0,-49.9847 -40.22,-90.2112 -90.21,-90.2112 v 0 0" /></g></g></svg>